<svg xmlns="http://www.w3.org/2000/svg" xmlns:xlink="http://www.w3.org/1999/xlink" width="500" zoomAndPan="magnify" viewBox="0 0 375 374.999991" height="500" preserveAspectRatio="xMidYMid meet" version="1.0"><defs><g/><clipPath id="94e103f7c2"><path d="M 53.539062 27.132812 L 274 27.132812 L 274 295.632812 L 53.539062 295.632812 Z M 53.539062 27.132812 " clip-rule="nonzero"/></clipPath><clipPath id="e5f33f1a6d"><path d="M 145 54 L 321.289062 54 L 321.289062 269 L 145 269 Z M 145 54 " clip-rule="nonzero"/></clipPath></defs><rect x="-37.5" width="450" fill="#ffffff" y="-37.499999" height="449.999989" fill-opacity="1"/><rect x="-37.5" width="450" fill="#ffffff" y="-37.499999" height="449.999989" fill-opacity="1"/><g clip-path="url(#94e103f7c2)"><path fill="#163b6d" d="M 215.398438 279.878906 C 149.980469 279.878906 96.945312 226.847656 96.945312 161.425781 C 96.945312 96.003906 149.980469 42.972656 215.398438 42.972656 C 236.628906 42.972656 256.535156 48.585938 273.765625 58.367188 C 250.472656 38.90625 220.488281 27.179688 187.761719 27.179688 C 113.621094 27.179688 53.515625 87.285156 53.515625 161.425781 C 53.515625 235.566406 113.621094 295.671875 187.761719 295.671875 C 220.488281 295.671875 250.46875 283.945312 273.765625 264.484375 C 256.535156 274.265625 236.628906 279.878906 215.398438 279.878906 " fill-opacity="1" fill-rule="nonzero"/></g><g clip-path="url(#e5f33f1a6d)"><path fill="#a6a6a6" d="M 192.125 256.019531 C 244.367188 256.019531 286.71875 213.667969 286.71875 161.425781 C 286.71875 109.183594 244.367188 66.832031 192.125 66.832031 C 175.171875 66.832031 159.273438 71.3125 145.515625 79.121094 C 164.117188 63.582031 188.058594 54.21875 214.195312 54.21875 C 273.40625 54.21875 321.402344 102.214844 321.402344 161.425781 C 321.402344 220.636719 273.40625 268.632812 214.195312 268.632812 C 188.058594 268.632812 164.117188 259.269531 145.515625 243.730469 C 159.273438 251.539062 175.171875 256.019531 192.125 256.019531 " fill-opacity="1" fill-rule="nonzero"/></g><g fill="#000000" fill-opacity="1"><g transform="translate(121.970354, 180.837816)"><g><path d="M 78.578125 -70.8125 C 78.972656 -70.8125 79.304688 -70.675781 79.578125 -70.40625 C 79.847656 -70.132812 79.984375 -69.800781 79.984375 -69.40625 C 79.984375 -69.019531 79.847656 -68.691406 79.578125 -68.421875 C 79.304688 -68.148438 78.972656 -68.015625 78.578125 -68.015625 C 74.816406 -67.960938 70.515625 -67.65625 65.671875 -67.09375 C 60.828125 -66.53125 55.820312 -65.796875 50.65625 -64.890625 C 45.5 -63.992188 40.523438 -62.929688 35.734375 -61.703125 C 35.003906 -58.617188 34.160156 -55.226562 33.203125 -51.53125 C 32.242188 -47.84375 31.226562 -43.992188 30.15625 -39.984375 C 29.425781 -37.054688 28.644531 -34.015625 27.8125 -30.859375 C 26.976562 -27.703125 26.171875 -24.535156 25.390625 -21.359375 C 28.765625 -22.234375 32.160156 -23.070312 35.578125 -23.875 C 39.003906 -24.6875 42.222656 -25.394531 45.234375 -26 C 48.242188 -26.613281 50.835938 -27.078125 53.015625 -27.390625 C 55.191406 -27.710938 56.71875 -27.851562 57.59375 -27.8125 C 57.988281 -27.757812 58.304688 -27.597656 58.546875 -27.328125 C 58.796875 -27.054688 58.921875 -26.726562 58.921875 -26.34375 C 58.867188 -25.945312 58.707031 -25.613281 58.4375 -25.34375 C 58.175781 -25.082031 57.847656 -24.953125 57.453125 -24.953125 C 56.472656 -25.046875 54.613281 -24.859375 51.875 -24.390625 C 49.132812 -23.929688 45.859375 -23.296875 42.046875 -22.484375 C 38.234375 -21.679688 34.195312 -20.742188 29.9375 -19.671875 C 28.082031 -19.179688 26.296875 -18.710938 24.578125 -18.265625 C 23.304688 -13.085938 22.128906 -8.0625 21.046875 -3.1875 C 19.972656 1.675781 19.09375 6.175781 18.40625 10.3125 C 17.726562 14.445312 17.363281 17.929688 17.3125 20.765625 C 17.3125 21.941406 17.421875 23.128906 17.640625 24.328125 C 17.867188 25.523438 18.375 26.296875 19.15625 26.640625 C 20.082031 27.023438 21.316406 26.875 22.859375 26.1875 C 24.398438 25.507812 26.125 24.457031 28.03125 23.03125 C 29.9375 21.613281 31.890625 20.023438 33.890625 18.265625 C 35.898438 16.503906 37.847656 14.71875 39.734375 12.90625 C 41.617188 11.101562 43.296875 9.492188 44.765625 8.078125 C 45.148438 7.679688 45.535156 7.300781 45.921875 6.9375 C 46.316406 6.570312 46.6875 6.191406 47.03125 5.796875 L 48.28125 4.625 C 49.007812 3.9375 49.71875 3.257812 50.40625 2.59375 C 51.09375 1.9375 51.707031 1.363281 52.25 0.875 C 52.976562 0.195312 53.660156 -0.347656 54.296875 -0.765625 C 54.929688 -1.179688 55.519531 -1.125 56.0625 -0.59375 C 56.695312 -0.0507812 56.769531 0.65625 56.28125 1.53125 C 55.789062 2.414062 54.835938 3.8125 53.421875 5.71875 C 53.171875 6.0625 52.847656 6.257812 52.453125 6.3125 C 52.066406 6.363281 51.726562 6.265625 51.4375 6.015625 C 51.34375 5.960938 51.242188 5.890625 51.140625 5.796875 C 50.992188 5.941406 50.847656 6.085938 50.703125 6.234375 C 50.554688 6.378906 50.410156 6.523438 50.265625 6.671875 L 49.015625 7.84375 C 48.671875 8.1875 48.300781 8.550781 47.90625 8.9375 C 47.519531 9.332031 47.128906 9.703125 46.734375 10.046875 C 43.066406 13.617188 39.59375 16.882812 36.3125 19.84375 C 33.039062 22.800781 30.019531 25.171875 27.25 26.953125 C 24.488281 28.742188 22.109375 29.640625 20.109375 29.640625 C 19.328125 29.640625 18.640625 29.492188 18.046875 29.203125 C 15.597656 28.171875 14.425781 25.359375 14.53125 20.765625 C 14.582031 17.878906 14.925781 14.441406 15.5625 10.453125 C 16.195312 6.460938 17.023438 2.097656 18.046875 -2.640625 C 19.078125 -7.390625 20.203125 -12.304688 21.421875 -17.390625 C 16.390625 -15.972656 12.476562 -14.738281 9.6875 -13.6875 C 6.894531 -12.632812 5.234375 -11.863281 4.703125 -11.375 C 4.453125 -11.125 4.128906 -11 3.734375 -11 C 3.347656 -11 3.007812 -11.148438 2.71875 -11.453125 C 2.46875 -11.691406 2.34375 -12.003906 2.34375 -12.390625 C 2.34375 -12.785156 2.488281 -13.128906 2.78125 -13.421875 C 3.375 -14.015625 4.609375 -14.703125 6.484375 -15.484375 C 8.367188 -16.265625 10.679688 -17.082031 13.421875 -17.9375 C 16.160156 -18.789062 19.097656 -19.660156 22.234375 -20.546875 C 23.066406 -23.921875 23.929688 -27.304688 24.828125 -30.703125 C 25.734375 -34.109375 26.601562 -37.445312 27.4375 -40.71875 C 28.414062 -44.382812 29.34375 -47.929688 30.21875 -51.359375 C 31.101562 -54.785156 31.914062 -57.96875 32.65625 -60.90625 C 28.34375 -59.726562 24.414062 -58.488281 20.875 -57.1875 C 17.332031 -55.894531 14.4375 -54.5625 12.1875 -53.1875 C 9.9375 -51.820312 8.613281 -50.457031 8.21875 -49.09375 C 8.125 -48.894531 8.125 -48.453125 8.21875 -47.765625 C 8.3125 -47.078125 9.117188 -46.222656 10.640625 -45.203125 C 10.929688 -44.953125 11.113281 -44.644531 11.1875 -44.28125 C 11.257812 -43.914062 11.195312 -43.5625 11 -43.21875 C 10.707031 -42.820312 10.316406 -42.625 9.828125 -42.625 C 9.535156 -42.625 9.269531 -42.695312 9.03125 -42.84375 C 7.070312 -44.164062 5.929688 -45.453125 5.609375 -46.703125 C 5.296875 -47.953125 5.257812 -49.015625 5.5 -49.890625 C 5.988281 -51.460938 7.125 -52.929688 8.90625 -54.296875 C 10.695312 -55.671875 12.925781 -56.941406 15.59375 -58.109375 C 18.257812 -59.285156 21.132812 -60.375 24.21875 -61.375 C 27.300781 -62.375 30.359375 -63.269531 33.390625 -64.0625 C 33.679688 -65.28125 33.925781 -66.332031 34.125 -67.21875 C 34.164062 -67.601562 34.359375 -67.894531 34.703125 -68.09375 C 35.046875 -68.289062 35.390625 -68.363281 35.734375 -68.3125 C 36.128906 -68.21875 36.4375 -68.007812 36.65625 -67.6875 C 36.875 -67.375 36.929688 -67.019531 36.828125 -66.625 C 36.734375 -66.132812 36.613281 -65.523438 36.46875 -64.796875 C 41.207031 -65.960938 46.132812 -66.984375 51.25 -67.859375 C 56.363281 -68.742188 61.28125 -69.441406 66 -69.953125 C 70.71875 -70.472656 74.910156 -70.757812 78.578125 -70.8125 Z M 78.578125 -70.8125 "/></g></g></g><g fill="#000000" fill-opacity="1"><g transform="translate(184.188583, 180.837816)"><g><path d="M 71.6875 -16.796875 C 71.925781 -16.460938 72.007812 -16.109375 71.9375 -15.734375 C 71.863281 -15.367188 71.660156 -15.066406 71.328125 -14.828125 C 63.742188 -9.390625 56.820312 -4.25 50.5625 0.59375 C 51.195312 2.59375 51.269531 4.789062 50.78125 7.1875 C 49.988281 11.34375 48.578125 15.21875 46.546875 18.8125 C 44.523438 22.414062 42.15625 25.695312 39.4375 28.65625 C 36.71875 31.613281 33.878906 34.15625 30.921875 36.28125 C 27.960938 38.40625 25.140625 40.066406 22.453125 41.265625 C 19.765625 42.472656 17.441406 43.148438 15.484375 43.296875 C 15.191406 43.335938 14.921875 43.359375 14.671875 43.359375 C 13.160156 43.359375 12.085938 43.050781 11.453125 42.4375 C 10.816406 41.832031 10.398438 41.257812 10.203125 40.71875 C 9.078125 37.632812 11.703125 32.554688 18.078125 25.484375 C 24.460938 18.421875 34.140625 9.828125 47.109375 -0.296875 C 45.492188 -3.179688 42.25 -5.84375 37.375 -8.28125 C 32.507812 -10.726562 26.066406 -13.566406 18.046875 -16.796875 C 17.117188 -17.191406 16.164062 -17.582031 15.1875 -17.96875 C 14.207031 -18.363281 13.207031 -18.78125 12.1875 -19.21875 C 8.65625 -20.6875 6.203125 -22.664062 4.828125 -25.15625 C 3.460938 -27.65625 3.296875 -30.519531 4.328125 -33.75 C 5.109375 -36.25 6.476562 -38.789062 8.4375 -41.375 C 10.394531 -43.96875 12.765625 -46.550781 15.546875 -49.125 C 18.335938 -51.695312 21.367188 -54.144531 24.640625 -56.46875 C 27.921875 -58.789062 31.273438 -60.90625 34.703125 -62.8125 C 38.128906 -64.71875 41.476562 -66.332031 44.75 -67.65625 C 48.03125 -68.976562 51.050781 -69.90625 53.8125 -70.4375 C 56.582031 -70.976562 58.921875 -71.03125 60.828125 -70.59375 C 61.609375 -70.394531 62.472656 -70.023438 63.421875 -69.484375 C 64.378906 -68.941406 65.140625 -68.070312 65.703125 -66.875 C 66.265625 -65.675781 66.425781 -64.023438 66.1875 -61.921875 C 66.082031 -61.535156 65.882812 -61.234375 65.59375 -61.015625 C 65.300781 -60.796875 64.957031 -60.707031 64.5625 -60.75 C 64.175781 -60.800781 63.859375 -60.984375 63.609375 -61.296875 C 63.367188 -61.617188 63.273438 -61.976562 63.328125 -62.375 C 63.617188 -64.425781 63.394531 -65.789062 62.65625 -66.46875 C 61.925781 -67.15625 61.117188 -67.597656 60.234375 -67.796875 C 58.378906 -68.234375 55.921875 -68.082031 52.859375 -67.34375 C 49.804688 -66.613281 46.394531 -65.378906 42.625 -63.640625 C 38.863281 -61.910156 35 -59.773438 31.03125 -57.234375 C 26.832031 -54.585938 23.054688 -51.832031 19.703125 -48.96875 C 16.347656 -46.113281 13.582031 -43.316406 11.40625 -40.578125 C 9.226562 -37.835938 7.773438 -35.296875 7.046875 -32.953125 C 5.429688 -27.910156 7.507812 -24.191406 13.28125 -21.796875 C 14.3125 -21.398438 15.300781 -21.003906 16.25 -20.609375 C 17.207031 -20.222656 18.175781 -19.832031 19.15625 -19.4375 C 24.09375 -17.4375 28.578125 -15.539062 32.609375 -13.75 C 36.648438 -11.96875 40.097656 -10.144531 42.953125 -8.28125 C 45.816406 -6.425781 47.957031 -4.347656 49.375 -2.046875 C 55.539062 -6.847656 62.316406 -11.863281 69.703125 -17.09375 C 70.046875 -17.34375 70.398438 -17.429688 70.765625 -17.359375 C 71.140625 -17.285156 71.445312 -17.097656 71.6875 -16.796875 Z M 48.0625 6.609375 C 48.351562 5.140625 48.378906 3.769531 48.140625 2.5 C 37.710938 10.664062 29.441406 17.851562 23.328125 24.0625 C 19.765625 27.726562 17.023438 30.992188 15.109375 33.859375 C 13.203125 36.722656 12.445312 38.691406 12.84375 39.765625 C 12.988281 40.160156 13.328125 40.394531 13.859375 40.46875 C 14.398438 40.539062 14.867188 40.550781 15.265625 40.5 C 16.878906 40.40625 18.90625 39.796875 21.34375 38.671875 C 23.789062 37.546875 26.382812 35.988281 29.125 34 C 31.863281 32.019531 34.53125 29.660156 37.125 26.921875 C 39.71875 24.179688 41.992188 21.097656 43.953125 17.671875 C 45.910156 14.253906 47.28125 10.566406 48.0625 6.609375 Z M 48.0625 6.609375 "/></g></g></g><g fill="#000000" fill-opacity="1"><g transform="translate(76.278083, 319.955737)"><g><path d="M 3.890625 -9.421875 L 3.890625 -7.046875 L 7.703125 -7.046875 L 7.703125 -4.84375 L 3.890625 -4.84375 L 3.890625 -2.28125 L 8.203125 -2.28125 L 8.203125 0 L 1.03125 0 L 1.03125 -11.703125 L 8.203125 -11.703125 L 8.203125 -9.421875 Z M 3.890625 -9.421875 "/></g></g></g><g fill="#000000" fill-opacity="1"><g transform="translate(88.664602, 319.955737)"><g><path d="M 5.265625 0.109375 C 4.410156 0.109375 3.644531 -0.0234375 2.96875 -0.296875 C 2.289062 -0.578125 1.75 -0.988281 1.34375 -1.53125 C 0.9375 -2.070312 0.722656 -2.726562 0.703125 -3.5 L 3.734375 -3.5 C 3.773438 -3.0625 3.921875 -2.726562 4.171875 -2.5 C 4.429688 -2.28125 4.769531 -2.171875 5.1875 -2.171875 C 5.601562 -2.171875 5.929688 -2.265625 6.171875 -2.453125 C 6.421875 -2.648438 6.546875 -2.921875 6.546875 -3.265625 C 6.546875 -3.554688 6.445312 -3.796875 6.25 -3.984375 C 6.0625 -4.171875 5.828125 -4.328125 5.546875 -4.453125 C 5.265625 -4.578125 4.859375 -4.71875 4.328125 -4.875 C 3.578125 -5.101562 2.960938 -5.332031 2.484375 -5.5625 C 2.003906 -5.800781 1.59375 -6.144531 1.25 -6.59375 C 0.90625 -7.050781 0.734375 -7.648438 0.734375 -8.390625 C 0.734375 -9.472656 1.125 -10.320312 1.90625 -10.9375 C 2.695312 -11.5625 3.726562 -11.875 5 -11.875 C 6.289062 -11.875 7.328125 -11.5625 8.109375 -10.9375 C 8.898438 -10.320312 9.328125 -9.46875 9.390625 -8.375 L 6.296875 -8.375 C 6.273438 -8.75 6.132812 -9.046875 5.875 -9.265625 C 5.625 -9.484375 5.300781 -9.59375 4.90625 -9.59375 C 4.5625 -9.59375 4.28125 -9.5 4.0625 -9.3125 C 3.851562 -9.125 3.75 -8.859375 3.75 -8.515625 C 3.75 -8.140625 3.925781 -7.84375 4.28125 -7.625 C 4.632812 -7.414062 5.191406 -7.191406 5.953125 -6.953125 C 6.703125 -6.691406 7.3125 -6.445312 7.78125 -6.21875 C 8.257812 -5.988281 8.671875 -5.648438 9.015625 -5.203125 C 9.359375 -4.753906 9.53125 -4.179688 9.53125 -3.484375 C 9.53125 -2.816406 9.359375 -2.207031 9.015625 -1.65625 C 8.679688 -1.113281 8.191406 -0.679688 7.546875 -0.359375 C 6.898438 -0.046875 6.140625 0.109375 5.265625 0.109375 Z M 5.265625 0.109375 "/></g></g></g><g fill="#000000" fill-opacity="1"><g transform="translate(102.28465, 319.955737)"><g><path d="M 9.453125 -11.703125 L 9.453125 -9.421875 L 6.359375 -9.421875 L 6.359375 0 L 3.5 0 L 3.5 -9.421875 L 0.40625 -9.421875 L 0.40625 -11.703125 Z M 9.453125 -11.703125 "/></g></g></g><g fill="#000000" fill-opacity="1"><g transform="translate(115.504644, 319.955737)"><g><path d="M 11.171875 -11.703125 L 11.171875 0 L 8.3125 0 L 8.3125 -4.8125 L 3.890625 -4.8125 L 3.890625 0 L 1.03125 0 L 1.03125 -11.703125 L 3.890625 -11.703125 L 3.890625 -7.125 L 8.3125 -7.125 L 8.3125 -11.703125 Z M 11.171875 -11.703125 "/></g></g></g><g fill="#000000" fill-opacity="1"><g transform="translate(131.058333, 319.955737)"><g><path d="M 3.890625 -9.421875 L 3.890625 -7.046875 L 7.703125 -7.046875 L 7.703125 -4.84375 L 3.890625 -4.84375 L 3.890625 -2.28125 L 8.203125 -2.28125 L 8.203125 0 L 1.03125 0 L 1.03125 -11.703125 L 8.203125 -11.703125 L 8.203125 -9.421875 Z M 3.890625 -9.421875 "/></g></g></g><g fill="#000000" fill-opacity="1"><g transform="translate(143.444848, 319.955737)"><g><path d="M 9.453125 -11.703125 L 9.453125 -9.421875 L 6.359375 -9.421875 L 6.359375 0 L 3.5 0 L 3.5 -9.421875 L 0.40625 -9.421875 L 0.40625 -11.703125 Z M 9.453125 -11.703125 "/></g></g></g><g fill="#000000" fill-opacity="1"><g transform="translate(156.664839, 319.955737)"><g><path d="M 3.890625 -11.703125 L 3.890625 0 L 1.03125 0 L 1.03125 -11.703125 Z M 3.890625 -11.703125 "/></g></g></g><g fill="#000000" fill-opacity="1"><g transform="translate(164.950696, 319.955737)"><g><path d="M 0.546875 -5.875 C 0.546875 -7.03125 0.796875 -8.054688 1.296875 -8.953125 C 1.796875 -9.859375 2.492188 -10.566406 3.390625 -11.078125 C 4.285156 -11.585938 5.300781 -11.84375 6.4375 -11.84375 C 7.820312 -11.84375 9.007812 -11.472656 10 -10.734375 C 10.988281 -10.003906 11.648438 -9.003906 11.984375 -7.734375 L 8.859375 -7.734375 C 8.617188 -8.222656 8.285156 -8.59375 7.859375 -8.84375 C 7.429688 -9.101562 6.945312 -9.234375 6.40625 -9.234375 C 5.519531 -9.234375 4.804688 -8.925781 4.265625 -8.3125 C 3.722656 -7.707031 3.453125 -6.894531 3.453125 -5.875 C 3.453125 -4.84375 3.722656 -4.019531 4.265625 -3.40625 C 4.804688 -2.800781 5.519531 -2.5 6.40625 -2.5 C 6.945312 -2.5 7.429688 -2.625 7.859375 -2.875 C 8.285156 -3.132812 8.617188 -3.507812 8.859375 -4 L 11.984375 -4 C 11.648438 -2.726562 10.988281 -1.726562 10 -1 C 9.007812 -0.28125 7.820312 0.078125 6.4375 0.078125 C 5.300781 0.078125 4.285156 -0.171875 3.390625 -0.671875 C 2.492188 -1.179688 1.796875 -1.882812 1.296875 -2.78125 C 0.796875 -3.6875 0.546875 -4.71875 0.546875 -5.875 Z M 0.546875 -5.875 "/></g></g></g><g fill="#000000" fill-opacity="1"><g transform="translate(181.021144, 319.955737)"><g/></g></g><g fill="#000000" fill-opacity="1"><g transform="translate(187.923448, 319.955737)"><g><path d="M 5.265625 0.109375 C 4.410156 0.109375 3.644531 -0.0234375 2.96875 -0.296875 C 2.289062 -0.578125 1.75 -0.988281 1.34375 -1.53125 C 0.9375 -2.070312 0.722656 -2.726562 0.703125 -3.5 L 3.734375 -3.5 C 3.773438 -3.0625 3.921875 -2.726562 4.171875 -2.5 C 4.429688 -2.28125 4.769531 -2.171875 5.1875 -2.171875 C 5.601562 -2.171875 5.929688 -2.265625 6.171875 -2.453125 C 6.421875 -2.648438 6.546875 -2.921875 6.546875 -3.265625 C 6.546875 -3.554688 6.445312 -3.796875 6.25 -3.984375 C 6.0625 -4.171875 5.828125 -4.328125 5.546875 -4.453125 C 5.265625 -4.578125 4.859375 -4.71875 4.328125 -4.875 C 3.578125 -5.101562 2.960938 -5.332031 2.484375 -5.5625 C 2.003906 -5.800781 1.59375 -6.144531 1.25 -6.59375 C 0.90625 -7.050781 0.734375 -7.648438 0.734375 -8.390625 C 0.734375 -9.472656 1.125 -10.320312 1.90625 -10.9375 C 2.695312 -11.5625 3.726562 -11.875 5 -11.875 C 6.289062 -11.875 7.328125 -11.5625 8.109375 -10.9375 C 8.898438 -10.320312 9.328125 -9.46875 9.390625 -8.375 L 6.296875 -8.375 C 6.273438 -8.75 6.132812 -9.046875 5.875 -9.265625 C 5.625 -9.484375 5.300781 -9.59375 4.90625 -9.59375 C 4.5625 -9.59375 4.28125 -9.5 4.0625 -9.3125 C 3.851562 -9.125 3.75 -8.859375 3.75 -8.515625 C 3.75 -8.140625 3.925781 -7.84375 4.28125 -7.625 C 4.632812 -7.414062 5.191406 -7.191406 5.953125 -6.953125 C 6.703125 -6.691406 7.3125 -6.445312 7.78125 -6.21875 C 8.257812 -5.988281 8.671875 -5.648438 9.015625 -5.203125 C 9.359375 -4.753906 9.53125 -4.179688 9.53125 -3.484375 C 9.53125 -2.816406 9.359375 -2.207031 9.015625 -1.65625 C 8.679688 -1.113281 8.191406 -0.679688 7.546875 -0.359375 C 6.898438 -0.046875 6.140625 0.109375 5.265625 0.109375 Z M 5.265625 0.109375 "/></g></g></g><g fill="#000000" fill-opacity="1"><g transform="translate(201.543494, 319.955737)"><g><path d="M 6.5625 0.109375 C 5.46875 0.109375 4.460938 -0.144531 3.546875 -0.65625 C 2.628906 -1.164062 1.898438 -1.878906 1.359375 -2.796875 C 0.816406 -3.710938 0.546875 -4.742188 0.546875 -5.890625 C 0.546875 -7.035156 0.816406 -8.0625 1.359375 -8.96875 C 1.898438 -9.882812 2.628906 -10.597656 3.546875 -11.109375 C 4.460938 -11.617188 5.46875 -11.875 6.5625 -11.875 C 7.664062 -11.875 8.675781 -11.617188 9.59375 -11.109375 C 10.507812 -10.597656 11.226562 -9.882812 11.75 -8.96875 C 12.28125 -8.0625 12.546875 -7.035156 12.546875 -5.890625 C 12.546875 -4.742188 12.28125 -3.710938 11.75 -2.796875 C 11.21875 -1.878906 10.492188 -1.164062 9.578125 -0.65625 C 8.671875 -0.144531 7.664062 0.109375 6.5625 0.109375 Z M 6.5625 -2.484375 C 7.5 -2.484375 8.25 -2.789062 8.8125 -3.40625 C 9.375 -4.03125 9.65625 -4.859375 9.65625 -5.890625 C 9.65625 -6.921875 9.375 -7.742188 8.8125 -8.359375 C 8.25 -8.972656 7.5 -9.28125 6.5625 -9.28125 C 5.625 -9.28125 4.875 -8.972656 4.3125 -8.359375 C 3.75 -7.753906 3.46875 -6.929688 3.46875 -5.890625 C 3.46875 -4.847656 3.75 -4.019531 4.3125 -3.40625 C 4.875 -2.789062 5.625 -2.484375 6.5625 -2.484375 Z M 6.5625 -2.484375 "/></g></g></g><g fill="#000000" fill-opacity="1"><g transform="translate(218.013996, 319.955737)"><g><path d="M 3.890625 -2.203125 L 7.625 -2.203125 L 7.625 0 L 1.03125 0 L 1.03125 -11.703125 L 3.890625 -11.703125 Z M 3.890625 -2.203125 "/></g></g></g><g fill="#000000" fill-opacity="1"><g transform="translate(229.333673, 319.955737)"><g><path d="M 3.828125 -11.703125 L 3.828125 -4.703125 C 3.828125 -4.003906 4 -3.460938 4.34375 -3.078125 C 4.695312 -2.703125 5.207031 -2.515625 5.875 -2.515625 C 6.539062 -2.515625 7.050781 -2.703125 7.40625 -3.078125 C 7.757812 -3.460938 7.9375 -4.003906 7.9375 -4.703125 L 7.9375 -11.703125 L 10.78125 -11.703125 L 10.78125 -4.71875 C 10.78125 -3.675781 10.554688 -2.789062 10.109375 -2.0625 C 9.671875 -1.34375 9.078125 -0.800781 8.328125 -0.4375 C 7.578125 -0.0703125 6.738281 0.109375 5.8125 0.109375 C 4.894531 0.109375 4.070312 -0.0664062 3.34375 -0.421875 C 2.613281 -0.785156 2.035156 -1.332031 1.609375 -2.0625 C 1.191406 -2.789062 0.984375 -3.675781 0.984375 -4.71875 L 0.984375 -11.703125 Z M 3.828125 -11.703125 "/></g></g></g><g fill="#000000" fill-opacity="1"><g transform="translate(244.453964, 319.955737)"><g><path d="M 9.453125 -11.703125 L 9.453125 -9.421875 L 6.359375 -9.421875 L 6.359375 0 L 3.5 0 L 3.5 -9.421875 L 0.40625 -9.421875 L 0.40625 -11.703125 Z M 9.453125 -11.703125 "/></g></g></g><g fill="#000000" fill-opacity="1"><g transform="translate(257.673955, 319.955737)"><g><path d="M 3.890625 -11.703125 L 3.890625 0 L 1.03125 0 L 1.03125 -11.703125 Z M 3.890625 -11.703125 "/></g></g></g><g fill="#000000" fill-opacity="1"><g transform="translate(265.959812, 319.955737)"><g><path d="M 6.5625 0.109375 C 5.46875 0.109375 4.460938 -0.144531 3.546875 -0.65625 C 2.628906 -1.164062 1.898438 -1.878906 1.359375 -2.796875 C 0.816406 -3.710938 0.546875 -4.742188 0.546875 -5.890625 C 0.546875 -7.035156 0.816406 -8.0625 1.359375 -8.96875 C 1.898438 -9.882812 2.628906 -10.597656 3.546875 -11.109375 C 4.460938 -11.617188 5.46875 -11.875 6.5625 -11.875 C 7.664062 -11.875 8.675781 -11.617188 9.59375 -11.109375 C 10.507812 -10.597656 11.226562 -9.882812 11.75 -8.96875 C 12.28125 -8.0625 12.546875 -7.035156 12.546875 -5.890625 C 12.546875 -4.742188 12.28125 -3.710938 11.75 -2.796875 C 11.21875 -1.878906 10.492188 -1.164062 9.578125 -0.65625 C 8.671875 -0.144531 7.664062 0.109375 6.5625 0.109375 Z M 6.5625 -2.484375 C 7.5 -2.484375 8.25 -2.789062 8.8125 -3.40625 C 9.375 -4.03125 9.65625 -4.859375 9.65625 -5.890625 C 9.65625 -6.921875 9.375 -7.742188 8.8125 -8.359375 C 8.25 -8.972656 7.5 -9.28125 6.5625 -9.28125 C 5.625 -9.28125 4.875 -8.972656 4.3125 -8.359375 C 3.75 -7.753906 3.46875 -6.929688 3.46875 -5.890625 C 3.46875 -4.847656 3.75 -4.019531 4.3125 -3.40625 C 4.875 -2.789062 5.625 -2.484375 6.5625 -2.484375 Z M 6.5625 -2.484375 "/></g></g></g><g fill="#000000" fill-opacity="1"><g transform="translate(282.430314, 319.955737)"><g><path d="M 11.5 0 L 8.65625 0 L 3.890625 -7.21875 L 3.890625 0 L 1.03125 0 L 1.03125 -11.703125 L 3.890625 -11.703125 L 8.65625 -4.453125 L 8.65625 -11.703125 L 11.5 -11.703125 Z M 11.5 0 "/></g></g></g><g fill="#000000" fill-opacity="1"><g transform="translate(298.334082, 319.955737)"><g><path d="M 5.265625 0.109375 C 4.410156 0.109375 3.644531 -0.0234375 2.96875 -0.296875 C 2.289062 -0.578125 1.75 -0.988281 1.34375 -1.53125 C 0.9375 -2.070312 0.722656 -2.726562 0.703125 -3.5 L 3.734375 -3.5 C 3.773438 -3.0625 3.921875 -2.726562 4.171875 -2.5 C 4.429688 -2.28125 4.769531 -2.171875 5.1875 -2.171875 C 5.601562 -2.171875 5.929688 -2.265625 6.171875 -2.453125 C 6.421875 -2.648438 6.546875 -2.921875 6.546875 -3.265625 C 6.546875 -3.554688 6.445312 -3.796875 6.25 -3.984375 C 6.0625 -4.171875 5.828125 -4.328125 5.546875 -4.453125 C 5.265625 -4.578125 4.859375 -4.71875 4.328125 -4.875 C 3.578125 -5.101562 2.960938 -5.332031 2.484375 -5.5625 C 2.003906 -5.800781 1.59375 -6.144531 1.25 -6.59375 C 0.90625 -7.050781 0.734375 -7.648438 0.734375 -8.390625 C 0.734375 -9.472656 1.125 -10.320312 1.90625 -10.9375 C 2.695312 -11.5625 3.726562 -11.875 5 -11.875 C 6.289062 -11.875 7.328125 -11.5625 8.109375 -10.9375 C 8.898438 -10.320312 9.328125 -9.46875 9.390625 -8.375 L 6.296875 -8.375 C 6.273438 -8.75 6.132812 -9.046875 5.875 -9.265625 C 5.625 -9.484375 5.300781 -9.59375 4.90625 -9.59375 C 4.5625 -9.59375 4.28125 -9.5 4.0625 -9.3125 C 3.851562 -9.125 3.75 -8.859375 3.75 -8.515625 C 3.75 -8.140625 3.925781 -7.84375 4.28125 -7.625 C 4.632812 -7.414062 5.191406 -7.191406 5.953125 -6.953125 C 6.703125 -6.691406 7.3125 -6.445312 7.78125 -6.21875 C 8.257812 -5.988281 8.671875 -5.648438 9.015625 -5.203125 C 9.359375 -4.753906 9.53125 -4.179688 9.53125 -3.484375 C 9.53125 -2.816406 9.359375 -2.207031 9.015625 -1.65625 C 8.679688 -1.113281 8.191406 -0.679688 7.546875 -0.359375 C 6.898438 -0.046875 6.140625 0.109375 5.265625 0.109375 Z M 5.265625 0.109375 "/></g></g></g></svg>